<svg width="72" height="72" viewBox="0 0 72 72" fill="none" xmlns="http://www.w3.org/2000/svg">
<rect width="72" height="72" rx="16" fill="#2F6DE9"/>
<path d="M16.5664 49.2109C15.9102 49.2109 15.377 49.0293 14.9668 48.666C14.5684 48.3027 14.3691 47.8223 14.3691 47.2246C14.3691 46.9785 14.3984 46.709 14.457 46.416C14.5273 46.123 14.6387 45.7539 14.791 45.3086L20.8379 27.9766C21.2129 26.8633 21.6934 26.0605 22.2793 25.5684C22.877 25.0645 23.6738 24.8125 24.6699 24.8125C25.666 24.8125 26.4512 25.0586 27.0254 25.5508C27.6113 26.043 28.0918 26.8516 28.4668 27.9766L34.5137 45.3086C34.7598 46.0586 34.8828 46.668 34.8828 47.1367C34.8828 47.7695 34.6777 48.2734 34.2676 48.6484C33.8574 49.0234 33.3125 49.2109 32.6328 49.2109C31.9883 49.2109 31.4727 49.0293 31.0859 48.666C30.6992 48.3027 30.3828 47.7168 30.1367 46.9082L28.7832 42.8301H20.3633L19.0273 46.9082C18.7812 47.7402 18.4648 48.332 18.0781 48.6836C17.7031 49.0352 17.1992 49.2109 16.5664 49.2109ZM21.418 39.2969H27.7461L24.7051 29.5938H24.4766L21.418 39.2969ZM57.1719 40.7383C57.1719 42.5078 56.7734 44.0547 55.9766 45.3789C55.1797 46.6914 54.0547 47.7109 52.6016 48.4375C51.1484 49.1523 49.4434 49.5098 47.4863 49.5098C45.459 49.5098 43.7188 49.1465 42.2656 48.4199C40.8242 47.6816 39.7168 46.6562 38.9434 45.3438C38.1699 44.0195 37.7832 42.4727 37.7832 40.7031V27.3613C37.7832 26.5645 37.9941 25.9434 38.416 25.498C38.8379 25.0527 39.418 24.8301 40.1562 24.8301C40.8945 24.8301 41.4746 25.0527 41.8965 25.498C42.3301 25.9434 42.5469 26.5645 42.5469 27.3613V40.2461C42.5469 41.8633 42.9863 43.1348 43.8652 44.0605C44.7441 44.9746 45.9512 45.4316 47.4863 45.4316C48.998 45.4316 50.1934 44.9688 51.0723 44.043C51.9629 43.1055 52.4082 41.8398 52.4082 40.2461V27.3613C52.4082 26.5645 52.6191 25.9434 53.041 25.498C53.4629 25.0527 54.043 24.8301 54.7812 24.8301C55.5195 24.8301 56.0996 25.0527 56.5215 25.498C56.9551 25.9434 57.1719 26.5645 57.1719 27.3613V40.7383Z" fill="white"/>
</svg>
