<svg width="24" height="24" viewBox="0 0 24 24" fill="#3857E3" xmlns="http://www.w3.org/2000/svg" foundation="[object Object]" class="InnerIconstyled__Icon-ch-front__sc-197h5bb-0 fgfywF ChatRoomFooterstyled__SendButtonIcon-ch-front__sc-fucbfx-9 hNrZbF" defaultopacity="1" hoveredopacity="1" margintop="0" marginright="0" marginbottom="0" marginleft="0" withtheme="true"><path fill="#3857E3" fill-rule="evenodd" clip-rule="evenodd" d="M20.9186 5.01057L2.91895 5.01034C2.51794 5.00977 2.15508 5.24929 1.99895 5.61886C1.84146 5.98808 1.92039 6.41478 2.19802 6.70366L7.74779 12.4761L17.7176 7.45444L18.0686 8.06239L8.74519 14.2097L10.9214 21.931C11.0307 22.3183 11.3609 22.6022 11.7599 22.6513C11.9807 22.6797 12.1991 22.6321 12.3836 22.5256C12.5326 22.4396 12.6604 22.315 12.7501 22.1604L21.7846 6.51053C21.964 6.20137 21.9636 5.82058 21.7846 5.51055C21.6061 5.20138 21.2765 5.01059 20.9186 5.01057Z"></path></svg>